{"glyphs":{":":{"x_min":0,"x_max":255,"ha":255,"o":"m 55 25 q 55 40 69 51 q 83 62 103 62 q 121 62 132 53 q 142 44 142 29 q 142 14 129 2 q 117 -9 98 -9 q 79 -9 67 1 q 55 10 55 25 z m 55 177 q 55 192 69 204 q 83 215 103 215 q 121 215 132 206 q 142 197 142 182 q 142 166 129 154 q 116 143 96 143 q 78 143 66 153 q 55 162 55 177 z"},"$":{"x_min":0,"x_max":347,"ha":347,"o":"m 151 524 q 151 529 150 538 q 150 547 150 551 l 150 580 q 150 593 153 598 q 156 603 163 603 q 170 603 173 595 q 176 587 176 553 l 176 525 q 222 522 253 508 q 284 494 284 478 q 284 469 278 463 q 271 458 260 458 q 250 458 239 464 q 228 471 210 487 q 199 490 187 492 q 175 494 163 494 q 129 494 106 474 q 82 454 82 425 q 82 375 208 309 l 210 308 q 271 277 290 257 q 310 237 310 210 q 310 170 276 148 q 243 126 177 123 q 177 117 176 107 q 176 97 176 93 q 176 77 177 62 q 177 58 177 57 q 177 47 173 42 q 170 36 163 36 q 156 36 153 42 q 149 48 149 58 q 149 59 150 80 q 151 102 151 123 q 97 132 63 150 q 29 169 29 188 q 29 196 35 202 q 41 208 49 208 q 59 208 96 177 q 134 147 181 147 q 225 147 251 164 q 277 181 277 209 q 277 229 257 246 q 237 264 179 291 q 103 327 75 357 q 48 387 48 428 q 48 466 74 491 q 101 515 151 524 z"},"?":{"x_min":0,"x_max":583,"ha":583,"o":"m 257 172 q 260 172 266 173 q 279 176 284 176 q 291 176 295 172 q 300 168 300 163 q 300 152 283 144 q 267 136 243 136 q 225 136 216 144 q 206 152 206 167 q 206 193 284 247 l 290 251 l 291 251 q 512 406 512 506 q 512 576 454 623 q 396 670 309 670 q 218 670 156 622 q 94 575 94 508 q 94 461 128 424 q 162 386 218 370 q 240 379 251 383 q 262 386 268 386 q 279 386 286 379 q 293 372 293 361 q 293 347 281 338 q 268 330 246 330 q 227 330 195 342 q 163 354 135 372 q 98 397 76 436 q 55 474 55 517 q 55 598 125 654 q 195 709 299 709 q 406 709 476 650 q 545 592 545 502 q 545 438 508 386 q 472 335 331 238 q 328 236 321 231 q 267 194 257 172 z m 232 31 q 238 29 240 27 q 243 24 245 17 q 252 16 256 15 q 259 15 261 15 q 269 15 273 19 q 278 22 278 27 q 278 32 271 35 q 263 38 249 38 q 243 38 239 36 q 236 35 232 31 z m 200 31 q 200 50 213 59 q 225 68 252 68 q 284 68 299 58 q 314 48 314 28 q 314 8 298 -1 q 283 -10 248 -10 q 225 -10 212 1 q 200 11 200 31 z"},"<":{"x_min":0,"x_max":833,"ha":833,"o":"m 704 505 l 194 298 l 704 91 l 704 48 l 129 283 l 129 313 l 704 549 z"},"'":{"x_min":0,"x_max":139,"ha":139,"o":"m 91 700 l 91 430 l 49 430 l 49 700 z"},"=":{"x_min":0,"x_max":833,"ha":833,"o":"m 709 229 l 709 189 l 124 189 l 124 229 z m 709 406 l 709 367 l 124 367 l 124 406 z"},"a":{"x_min":0,"x_max":461,"ha":461,"o":"m 381 348 l 381 319 q 381 185 393 119 q 404 53 428 53 l 432 53 q 438 53 443 49 q 448 44 448 38 q 448 28 440 22 q 432 16 418 16 q 389 16 375 44 q 361 72 352 163 q 324 73 283 31 q 242 -10 183 -10 q 115 -10 74 44 q 33 97 33 187 q 33 305 100 390 q 167 475 256 475 q 307 475 348 444 q 388 413 388 376 q 388 371 386 364 q 385 358 381 348 z m 349 396 q 331 421 306 434 q 282 447 251 447 q 182 447 127 373 q 72 299 72 196 q 72 119 105 72 q 139 25 191 25 q 259 25 304 106 q 349 187 351 317 q 351 319 350 323 q 344 357 344 367 q 344 373 345 379 q 346 386 349 396 z"},"L":{"x_min":0,"x_max":389,"ha":389,"o":"m 150 35 q 178 36 243 40 q 308 44 342 44 q 367 44 383 39 q 398 33 398 25 q 398 19 393 16 q 389 13 379 13 l 362 13 q 306 13 228 5 q 150 -3 131 -3 q 118 -3 111 2 q 104 6 104 16 q 104 20 106 25 q 108 30 112 35 l 112 87 l 112 138 q 112 279 115 381 q 118 483 125 580 q 127 615 135 628 q 142 641 157 641 q 164 641 169 637 q 174 633 174 628 q 174 623 167 613 q 166 610 165 609 q 156 552 152 451 q 148 349 148 178 q 148 121 148 91 q 149 61 150 35 z"},"3":{"x_min":0,"x_max":449,"ha":449,"o":"m 204 226 q 293 212 336 183 q 379 153 379 105 q 379 53 321 20 q 263 -14 169 -14 q 107 -14 69 4 q 31 23 31 51 q 31 62 38 70 q 44 78 54 78 q 67 78 75 69 q 83 59 88 37 q 103 23 122 17 q 141 11 167 11 q 241 11 288 40 q 335 68 335 113 q 335 154 287 179 q 238 204 158 204 q 135 204 108 200 q 81 197 76 197 q 65 197 61 200 q 57 204 57 212 q 57 221 63 226 q 69 232 79 232 q 108 232 152 244 q 196 255 234 274 q 309 312 351 354 q 392 396 392 433 q 392 464 362 483 q 331 502 279 502 q 208 502 152 478 q 96 454 70 411 l 70 401 q 70 382 62 368 q 54 354 42 354 q 32 354 26 362 q 20 369 20 381 q 20 436 93 482 q 166 529 263 529 q 339 529 384 501 q 428 474 428 427 q 428 374 368 320 q 308 266 204 226 z"},";":{"x_min":0,"x_max":255,"ha":255,"o":"m 86 1 q 79 13 75 24 q 71 34 71 43 q 71 57 78 66 q 86 75 97 75 q 111 75 119 63 q 128 52 128 33 q 128 19 117 -16 q 107 -52 103 -72 q 102 -76 101 -84 q 97 -104 89 -104 q 85 -104 83 -100 q 80 -96 80 -91 q 80 -88 82 -76 q 86 -34 86 1 z m 55 177 q 55 192 69 204 q 83 215 103 215 q 121 215 132 206 q 142 197 142 182 q 142 166 129 154 q 116 143 96 143 q 78 143 66 153 q 55 162 55 177 z"},"J":{"x_min":0,"x_max":440,"ha":440,"o":"m 337 618 l 326 618 l 303 618 q 292 618 283 624 q 275 630 275 637 q 275 646 281 650 q 288 654 301 654 q 303 654 313 653 q 323 653 330 653 q 354 653 394 654 q 435 655 451 655 q 473 655 484 650 q 495 645 495 635 q 495 629 492 626 q 489 624 483 624 q 481 624 473 625 q 464 626 457 626 q 441 626 425 625 q 408 625 378 622 q 383 566 385 502 q 388 438 388 364 q 388 167 335 79 q 282 -9 166 -9 q 77 -9 11 32 q -55 73 -55 119 q -55 136 -47 145 q -39 155 -24 155 q -10 155 0 150 q 9 145 9 137 q 9 134 0 125 q -10 115 -10 105 q -10 72 38 46 q 85 20 153 20 q 211 20 250 42 q 288 63 313 110 q 333 146 341 194 q 349 243 349 354 l 349 371 q 349 476 346 531 q 343 586 337 618 z"},"V":{"x_min":0,"x_max":720,"ha":720,"o":"m 517 30 q 568 321 649 522 q 729 723 781 723 q 794 723 806 712 q 818 700 818 689 q 818 682 814 678 q 811 675 804 675 q 802 675 800 676 q 797 676 794 678 q 717 594 652 420 q 586 246 549 24 q 551 16 555 8 q 558 0 558 -1 q 558 -13 547 -20 q 535 -27 515 -27 q 498 -27 489 -20 q 480 -13 480 1 q 480 5 480 7 q 480 8 481 10 l 475 68 q 395 770 248 770 q 214 770 173 742 q 133 714 97 666 q 62 618 42 563 q 22 509 22 459 q 22 372 82 310 q 142 248 227 248 q 236 248 255 250 q 257 250 258 250 q 284 263 294 267 q 304 270 312 270 q 324 270 332 265 q 340 260 340 252 q 340 237 317 229 q 294 221 250 221 q 126 221 54 284 q -18 347 -18 455 q -18 503 -1 557 q 17 611 48 662 q 89 727 144 765 q 198 803 249 803 q 333 803 380 735 q 428 667 456 503 q 467 436 485 278 q 502 119 517 30 z"},"\"":{"x_min":0,"x_max":269,"ha":269,"o":"m 220 700 l 220 430 l 178 430 l 178 700 z m 91 700 l 91 430 l 49 430 l 49 700 z"},"7":{"x_min":0,"x_max":426,"ha":426,"o":"m 383 588 q 358 592 331 594 q 303 595 264 595 q 111 595 14 569 q 6 567 5 567 q 0 567 -3 570 q -6 573 -6 578 q -6 612 21 621 q 47 631 180 631 l 198 631 q 355 631 390 621 q 426 611 426 583 q 426 571 367 488 q 308 405 265 327 q 216 238 183 166 q 150 93 131 31 q 133 26 136 18 q 140 6 140 3 q 140 -5 134 -9 q 127 -13 115 -13 q 93 -13 82 -6 q 72 1 72 16 q 72 61 161 233 q 250 405 383 588 z"},"S":{"x_min":0,"x_max":657,"ha":657,"o":"m 539 533 q 502 560 456 573 q 410 586 354 586 q 240 586 155 540 q 71 494 71 438 q 71 372 317 308 l 325 306 q 486 265 544 226 q 602 188 602 131 q 602 69 526 30 q 451 -10 325 -10 q 212 -10 136 16 q 59 41 59 75 q 59 91 73 101 q 87 110 111 110 q 120 110 127 106 q 134 103 134 98 q 134 94 129 85 q 124 77 124 74 q 124 54 179 38 q 235 23 319 23 q 429 23 492 52 q 555 82 555 133 q 555 177 506 207 q 456 237 294 278 q 125 320 74 354 q 23 387 23 440 q 23 508 120 564 q 217 621 344 621 q 455 621 540 579 q 625 537 625 501 q 625 493 620 488 q 616 484 607 484 q 594 484 576 497 q 558 510 539 533 z"},"}":{"x_min":0,"x_max":500,"ha":500,"o":"m 266 537 l 266 420 q 266 343 294 311 q 323 280 392 280 q 396 280 403 280 q 410 281 414 281 l 414 237 q 410 237 403 237 q 396 238 392 238 q 323 238 294 207 q 266 175 266 98 l 266 -19 q 266 -129 233 -166 q 199 -202 107 -202 l 86 -202 l 86 -159 l 105 -159 q 170 -159 193 -135 q 216 -110 216 -31 l 216 87 q 216 172 237 208 q 258 243 312 259 q 258 274 237 310 q 216 346 216 431 l 216 549 q 216 628 193 653 q 170 678 104 678 l 86 678 l 86 721 l 107 721 q 199 721 233 685 q 266 648 266 537 z"},"Z":{"x_min":0,"x_max":560,"ha":560,"o":"m 120 31 q 172 35 216 36 q 260 38 296 38 q 429 38 496 24 q 563 9 563 -19 q 563 -26 560 -30 q 557 -33 551 -33 q 542 -33 525 -15 l 524 -13 q 487 -2 437 3 q 387 8 309 8 q 212 8 125 -7 q 112 -9 109 -9 q 99 -9 87 4 q 76 17 76 27 q 76 37 129 112 q 183 187 261 284 q 350 395 437 491 q 524 587 609 667 q 530 682 424 690 q 318 698 189 698 q 142 698 117 698 q 91 697 68 696 l 68 691 q 68 682 63 675 q 59 669 52 669 q 42 669 32 684 q 22 700 22 713 q 22 727 33 732 q 43 738 79 738 q 202 738 317 731 q 432 724 534 711 q 542 710 555 708 q 657 695 657 660 q 657 658 590 594 q 523 530 453 453 q 351 340 269 237 q 187 133 120 31 z"},"x":{"x_min":0,"x_max":345,"ha":345,"o":"m 139 193 l 139 194 q 116 340 90 340 q 69 340 58 309 q 47 279 34 279 q 28 279 24 284 q 20 289 20 297 q 20 316 45 339 q 69 363 97 363 q 129 363 148 333 q 167 302 173 242 q 204 280 235 330 q 267 379 279 379 q 288 379 294 374 q 301 368 301 361 q 301 355 288 342 q 283 337 280 334 q 259 306 235 272 q 211 239 184 199 q 188 125 211 82 q 234 40 269 40 q 292 40 318 59 q 344 77 344 77 q 351 77 354 73 q 358 69 358 62 q 358 45 324 23 q 291 0 260 0 q 220 0 192 39 q 163 77 150 149 q 122 108 96 70 q 70 32 48 -4 q 46 -29 38 -40 q 30 -51 13 -51 q 2 -51 -1 -47 q -5 -44 -5 -35 q -5 -25 84 109 q 119 162 139 193 z"},")":{"x_min":0,"x_max":440,"ha":440,"o":"m 83 762 q 205 618 264 488 q 324 357 324 234 q 324 144 290 65 q 255 -14 195 -64 q 161 -92 120 -111 q 79 -131 63 -131 q 53 -131 48 -124 q 42 -117 42 -105 q 42 -98 45 -95 q 48 -92 55 -92 q 59 -92 62 -93 q 65 -94 69 -95 q 164 -69 223 24 q 283 117 283 243 q 283 343 246 444 q 209 545 135 647 q 114 675 81 715 q 47 754 47 764 q 47 772 54 779 q 61 786 68 786 q 74 786 79 780 q 83 774 83 765 z"},"&":{"x_min":0,"x_max":562,"ha":562,"o":"m 231 401 q 188 419 163 453 q 139 487 139 528 q 139 589 189 635 q 239 680 308 680 q 344 680 377 669 q 410 657 442 634 q 445 644 451 661 q 491 790 514 790 q 524 790 532 784 q 539 779 539 771 q 539 763 533 757 q 527 750 516 748 q 496 706 484 665 q 472 624 472 598 q 472 588 474 574 q 475 560 475 555 q 475 549 470 544 q 466 540 459 540 q 445 540 438 565 q 435 578 432 585 q 417 619 387 637 q 357 655 317 655 q 259 655 220 621 q 180 586 180 537 q 180 486 216 454 q 252 423 311 423 q 332 423 359 427 q 386 430 391 430 q 400 430 405 426 q 409 422 409 414 q 409 394 350 393 q 327 392 314 391 q 223 384 159 326 q 95 268 95 192 q 95 121 149 72 q 203 23 283 23 q 359 23 413 64 q 467 105 478 173 q 479 182 480 201 q 483 251 502 251 q 512 251 518 243 q 523 235 523 220 q 523 197 512 163 q 502 129 486 103 q 451 46 401 19 q 352 -9 285 -9 q 184 -9 120 47 q 55 103 55 187 q 55 254 101 310 q 146 365 231 401 z"},"_":{"x_min":0,"x_max":500,"ha":500,"o":"m 500 -197 l 500 -236 l 0 -236 l 0 -197 z"},"v":{"x_min":0,"x_max":396,"ha":396,"o":"m 63 444 q 56 446 52 451 q 48 455 48 462 q 48 471 58 479 q 67 487 80 487 q 90 487 98 480 q 105 473 105 463 q 105 462 103 456 q 79 376 79 235 q 79 142 105 86 q 131 30 173 30 q 199 30 222 52 q 245 74 259 113 q 276 159 285 206 q 295 252 295 290 q 295 305 292 334 q 291 343 290 348 q 264 377 248 417 q 232 457 232 488 q 232 497 237 504 q 241 511 247 511 q 265 511 288 469 q 311 426 319 369 q 324 367 329 366 q 334 365 339 365 q 367 365 385 383 q 403 401 406 401 q 412 401 415 398 q 417 396 417 390 q 417 368 392 348 q 366 328 333 328 l 324 328 l 324 299 q 324 254 312 197 q 301 139 284 98 q 262 46 233 19 q 204 -8 169 -8 q 108 -8 76 55 q 45 117 45 240 q 45 308 62 441 z"},"O":{"x_min":0,"x_max":675,"ha":675,"o":"m 233 615 q 238 613 240 611 q 242 608 242 604 q 242 590 221 585 q 210 583 206 580 q 197 574 184 557 q 170 540 155 516 q 113 447 96 394 q 80 342 80 284 q 80 168 143 98 q 205 28 307 28 q 433 28 516 120 q 598 212 598 353 q 598 479 525 558 q 453 637 337 637 q 304 637 279 632 q 254 626 233 615 z m 132 556 q 131 556 130 556 q 128 555 128 555 q 121 555 116 562 q 112 568 112 577 q 112 602 184 633 q 256 664 334 664 q 466 664 550 575 q 635 487 635 349 q 635 279 612 217 q 589 154 545 103 q 499 49 436 20 q 373 -9 303 -9 q 187 -9 114 72 q 40 152 40 279 q 40 348 63 419 q 87 490 132 556 z"},"(":{"x_min":0,"x_max":440,"ha":440,"o":"m 342 762 l 342 765 q 342 774 346 780 q 351 786 357 786 q 365 786 371 779 q 378 772 378 764 q 378 754 345 715 q 318 684 302 663 q 224 562 183 455 q 142 347 142 243 q 142 118 202 24 q 262 -69 357 -95 q 361 -93 364 -93 q 367 -92 370 -92 q 377 -92 380 -95 q 383 -98 383 -105 q 383 -117 377 -124 q 372 -131 362 -131 q 347 -131 306 -111 q 265 -92 231 -64 q 170 -13 135 65 q 101 144 101 234 q 101 356 161 488 q 221 619 342 762 z"},"C":{"x_min":0,"x_max":628,"ha":628,"o":"m 479 470 q 490 487 497 493 q 503 499 511 499 q 518 499 523 495 q 528 490 528 485 q 528 477 516 471 q 505 465 501 450 q 496 427 492 394 q 489 361 489 329 q 489 303 483 294 q 478 284 465 284 q 453 284 446 293 q 438 302 438 317 q 438 322 443 360 q 448 397 448 430 q 448 524 415 581 q 382 638 327 638 q 300 638 271 619 q 242 601 214 565 q 162 499 128 406 q 94 313 94 240 q 94 143 151 80 q 207 18 296 18 q 370 18 438 60 q 507 101 557 176 q 566 189 577 209 q 591 234 598 234 q 604 234 608 229 q 612 225 612 218 q 612 208 598 184 q 585 161 560 128 q 510 62 440 26 q 370 -10 292 -10 q 182 -10 118 57 q 54 124 54 237 q 54 312 86 402 q 119 492 175 573 q 206 618 244 642 q 282 665 324 665 q 387 665 427 615 q 467 564 479 470 z"},"W":{"x_min":0,"x_max":891,"ha":891,"o":"m 429 38 q 444 75 470 140 q 571 395 596 395 q 607 395 612 390 q 616 384 616 368 q 616 247 663 134 q 709 20 743 20 q 761 20 780 164 q 798 294 814 382 q 846 558 879 658 q 913 758 938 758 q 950 758 963 747 q 975 736 975 726 q 975 722 971 719 q 967 716 961 716 l 958 716 q 929 716 893 593 q 857 470 828 266 q 823 230 815 168 q 792 -14 745 -14 q 697 -14 647 90 q 597 194 585 336 q 542 249 510 168 q 477 88 458 26 q 456 18 452 5 q 445 -23 419 -23 q 399 -23 393 -18 q 387 -12 387 3 l 387 8 q 387 15 390 120 q 392 226 392 324 q 392 419 389 478 q 386 537 380 559 q 363 619 330 647 q 297 675 244 675 q 204 675 163 659 q 123 643 86 613 q 50 583 29 545 q 9 507 9 470 q 9 409 53 372 q 98 335 173 335 q 191 335 222 341 q 228 342 231 343 q 234 345 241 348 q 272 363 280 363 q 291 363 298 357 q 305 352 305 343 q 305 327 271 319 q 238 310 175 310 q 83 310 28 354 q -27 397 -27 470 q -27 506 -12 541 q 2 576 30 606 q 69 649 126 675 q 184 700 241 700 q 298 700 336 677 q 374 653 398 603 q 417 564 424 503 q 432 442 432 289 q 432 256 431 182 q 429 108 429 67 z"},"A":{"x_min":0,"x_max":775,"ha":775,"o":"m 630 321 l 431 321 q 335 167 219 78 q 103 -11 3 -11 q -37 -11 -55 1 q -73 13 -73 39 q -73 59 -63 72 q -53 86 -39 86 q -24 86 -24 66 q -24 59 -23 55 q -21 49 -8 45 q 5 41 25 41 q 118 41 208 108 q 298 176 392 315 q 389 315 382 314 q 369 313 366 313 q 347 313 336 321 q 325 329 325 341 q 325 352 334 358 q 344 364 360 364 q 372 364 386 361 q 400 358 416 353 q 483 459 529 553 q 576 647 602 729 q 601 732 600 735 q 599 738 599 741 q 599 749 606 755 q 613 761 624 761 q 650 761 662 737 q 674 712 674 656 q 674 597 671 459 q 668 322 668 245 q 668 123 675 83 q 681 44 699 44 q 701 44 705 44 q 709 45 711 45 q 715 45 718 40 q 721 35 721 28 q 721 13 711 1 q 700 -10 687 -10 q 657 -10 642 40 q 627 90 627 193 q 627 222 628 254 q 628 287 630 321 z m 447 352 l 631 352 q 634 422 635 483 q 636 545 636 602 q 636 651 636 675 q 636 700 635 721 q 582 594 536 505 q 491 416 447 352 z"},"f":{"x_min":0,"x_max":442,"ha":442,"o":"m 97 241 q 102 313 107 451 l 108 460 q 102 462 99 466 q 96 470 96 475 q 96 482 108 490 q 121 498 132 498 q 143 498 148 490 q 153 482 153 467 q 153 464 151 448 q 140 352 135 248 l 136 248 q 313 266 373 266 l 391 266 q 412 266 423 260 q 434 254 434 242 q 434 235 429 231 q 424 228 414 228 q 413 228 410 229 q 392 231 373 231 q 343 231 310 229 q 276 226 239 221 q 282 198 306 137 q 330 77 330 -9 q 330 -132 295 -201 q 260 -271 200 -271 q 139 -271 113 -207 q 86 -143 86 10 q 86 54 87 97 q 88 140 91 184 q 81 180 75 178 q 70 177 67 177 q 51 177 43 182 q 36 187 36 198 q 36 211 48 220 q 60 229 97 241 z m 131 204 q 126 169 123 114 q 120 59 120 -7 q 120 -123 141 -180 q 162 -237 205 -237 q 248 -237 271 -183 q 294 -130 294 -29 q 294 81 260 147 q 227 213 172 213 q 162 213 152 211 q 142 208 131 204 z"},"Q":{"x_min":0,"x_max":644,"ha":644,"o":"m 425 38 q 385 14 346 2 q 307 -10 265 -10 q 164 -10 102 66 q 39 142 39 265 q 39 339 62 433 q 86 526 130 628 q 129 628 127 627 q 118 626 114 626 q 104 626 96 632 q 89 637 89 645 q 89 654 98 660 q 108 667 126 671 q 192 685 236 692 q 280 698 311 698 q 442 698 527 606 q 611 513 611 370 q 611 278 572 198 q 534 118 460 58 q 509 25 559 2 q 608 -21 608 -32 q 608 -40 602 -45 q 596 -50 586 -50 q 578 -50 526 -18 q 474 14 425 38 z m 428 76 q 495 130 530 207 q 566 284 566 372 q 566 504 495 585 q 425 666 308 666 q 281 666 249 660 q 218 655 183 644 q 136 563 109 461 q 82 359 82 267 q 82 152 133 84 q 184 15 269 15 q 299 15 332 25 q 364 35 398 55 q 380 66 351 83 q 294 117 294 131 q 294 139 301 146 q 307 152 316 152 q 328 152 365 122 q 401 93 428 76 z"},"w":{"x_min":0,"x_max":456,"ha":456,"o":"m 184 175 q 171 77 152 32 q 133 -12 106 -12 q 77 -12 63 25 q 49 62 49 137 q 49 177 52 234 q 56 292 62 362 q 59 363 58 365 q 56 368 56 371 q 56 378 64 384 q 72 390 83 390 q 94 390 99 385 q 105 380 105 370 q 105 369 103 358 q 80 263 80 146 q 80 69 85 51 q 91 33 105 33 q 122 33 134 69 q 146 104 164 214 q 168 241 172 279 q 177 329 194 329 q 204 329 208 324 q 213 319 213 308 q 213 307 211 288 q 210 270 210 253 q 210 143 227 85 q 245 27 277 27 q 311 27 333 86 q 356 146 356 235 q 356 236 355 247 q 354 257 354 266 q 338 286 329 307 q 321 329 321 350 q 321 373 328 385 q 336 398 349 398 q 365 398 374 379 q 383 360 388 311 q 400 319 412 338 q 424 357 433 357 q 439 357 443 354 q 447 351 447 346 q 447 333 430 310 q 414 288 389 272 l 389 245 q 389 137 355 61 q 321 -15 275 -15 q 236 -15 212 34 q 189 83 184 175 z"},"-":{"x_min":0,"x_max":243,"ha":243,"o":"m 175 196 l 150 196 l 145 196 q 97 196 47 183 q 38 180 36 180 q 30 180 25 185 q 21 189 21 195 l 21 198 q 21 222 33 227 q 46 231 106 231 l 153 231 q 184 231 195 225 q 206 219 206 205 q 206 198 202 194 q 198 190 191 190 q 188 190 185 191 q 181 193 175 196 z"},"E":{"x_min":0,"x_max":562,"ha":562,"o":"m 234 334 q 134 372 91 414 q 49 456 49 516 q 49 591 111 637 q 173 683 274 683 q 340 683 390 662 q 439 640 486 591 q 502 590 510 582 q 517 574 517 557 q 517 515 511 499 q 505 484 489 484 q 469 484 464 520 q 460 550 453 568 q 436 608 391 631 q 346 654 284 654 q 198 654 142 612 q 87 570 87 507 q 87 455 137 412 q 187 369 270 350 q 308 341 358 340 q 407 338 407 324 q 407 319 403 315 q 398 311 393 311 q 392 311 369 313 q 346 316 323 316 q 229 316 158 263 q 87 211 87 147 q 87 89 149 54 q 210 18 313 18 q 361 18 401 25 q 441 33 472 47 q 480 52 489 65 q 498 78 510 78 q 520 78 529 70 q 537 61 537 53 q 537 29 472 9 q 407 -11 315 -11 q 187 -11 117 30 q 47 70 47 144 q 47 199 93 245 q 139 292 234 334 z"},"s":{"x_min":0,"x_max":373,"ha":373,"o":"m 272 423 l 272 423 q 285 439 294 439 q 302 439 309 434 q 315 429 315 422 q 315 417 312 412 q 310 407 303 401 l 303 388 l 303 366 l 303 311 q 303 299 299 292 q 295 286 287 286 q 271 286 267 317 q 264 341 260 356 q 250 395 228 413 q 206 432 170 432 q 128 432 99 404 q 70 375 70 334 q 70 268 189 221 q 202 216 209 213 q 290 180 317 155 q 344 130 344 98 q 344 51 295 21 q 245 -8 164 -8 q 101 -8 57 15 q 12 38 12 68 q 12 79 18 86 q 24 93 33 93 q 48 93 79 51 q 84 42 88 38 q 102 29 119 24 q 137 20 159 20 q 225 20 265 42 q 304 64 304 100 q 304 125 285 143 q 267 160 199 187 q 193 189 180 194 q 32 253 32 333 q 32 387 74 426 q 116 465 172 465 q 199 465 224 454 q 249 444 272 423 z"},">":{"x_min":0,"x_max":833,"ha":833,"o":"m 704 313 l 704 283 l 129 48 l 129 91 l 639 298 l 129 505 l 129 549 z"},"l":{"x_min":0,"x_max":315,"ha":315,"o":"m 99 228 q 104 227 108 226 q 112 225 115 225 q 150 225 172 315 q 193 406 193 558 q 193 615 185 639 q 178 664 161 664 q 148 664 139 646 q 130 628 124 592 q 111 518 105 446 q 98 373 98 304 q 98 273 98 257 q 99 242 99 228 z m 64 233 q 63 248 63 260 q 63 273 63 288 q 63 367 72 451 q 81 535 97 604 q 109 654 125 677 q 141 699 164 699 q 193 699 208 656 q 223 612 223 528 q 223 370 193 281 q 164 193 111 193 q 109 193 106 193 q 104 194 102 194 l 102 188 q 102 104 123 60 q 144 16 184 16 q 210 16 234 34 q 257 53 267 80 q 271 90 273 110 q 276 136 286 136 q 292 136 296 130 q 301 125 301 118 q 301 76 264 32 q 227 -11 178 -11 q 125 -11 96 42 q 68 96 68 198 q 63 207 62 211 q 61 214 61 217 q 61 219 62 224 q 62 228 64 233 z"},"8":{"x_min":0,"x_max":475,"ha":475,"o":"m 139 321 q 92 337 67 367 q 42 397 42 436 q 42 482 72 529 q 103 576 156 613 q 197 641 237 656 q 277 672 309 672 q 323 672 335 668 q 346 665 356 657 q 400 644 427 607 q 453 569 453 519 q 453 468 420 421 q 387 375 325 338 q 374 324 400 290 q 426 257 426 209 q 426 110 354 43 q 283 -24 175 -24 q 95 -24 49 19 q 2 61 2 134 q 2 195 39 245 q 75 295 139 321 z m 347 625 q 342 623 338 622 q 334 621 331 621 q 329 621 326 622 q 323 622 323 622 q 322 622 307 627 q 292 633 278 633 q 254 633 222 616 q 190 600 156 569 q 121 538 104 506 q 87 473 87 438 q 87 396 118 372 q 150 348 206 348 q 293 348 354 398 q 416 448 416 519 q 416 561 397 590 q 378 618 347 625 z m 275 309 q 178 309 112 258 q 45 208 45 135 q 45 83 81 52 q 116 20 176 20 q 264 20 327 74 q 390 128 390 207 q 390 255 360 282 q 329 309 275 309 z"},"\\":{"x_min":0,"x_max":306,"ha":306,"o":"m 1 648 q 20 610 61 506 q 103 402 166 236 q 203 139 245 34 q 287 -70 287 -75 q 287 -85 280 -93 q 273 -100 264 -100 q 242 -100 190 51 q 157 147 134 210 q 85 343 25 500 q -35 656 -35 663 q -35 673 -31 679 q -27 684 -19 684 q -11 684 -5 675 q 1 666 1 653 z"},"e":{"x_min":0,"x_max":343,"ha":343,"o":"m 87 182 q 84 171 83 159 q 82 146 82 131 q 82 81 114 49 q 146 18 197 18 q 230 18 261 31 q 292 44 312 67 q 313 78 320 84 q 328 91 337 91 q 345 91 350 85 q 356 80 356 71 q 356 52 301 21 q 245 -10 186 -10 q 121 -10 82 30 q 43 69 43 136 q 43 172 58 227 q 74 282 100 335 q 118 373 135 387 q 151 402 173 402 q 209 402 235 370 q 261 337 261 290 q 261 240 226 209 q 190 178 132 178 q 119 178 108 179 q 97 180 87 182 z m 92 210 q 108 206 120 204 q 131 202 141 202 q 181 202 204 228 q 227 253 227 298 q 227 333 213 354 q 200 376 179 376 q 156 376 135 336 q 114 296 92 210 z"},"b":{"x_min":0,"x_max":451,"ha":451,"o":"m 90 70 q 96 67 99 61 q 103 55 106 44 q 124 30 144 24 q 164 17 189 17 q 270 17 323 91 q 377 165 377 278 q 377 347 353 388 q 328 428 287 428 q 219 428 158 323 q 98 219 90 70 z m 94 255 q 129 347 183 402 q 237 457 290 457 q 344 457 381 402 q 417 347 417 261 q 417 147 352 69 q 288 -9 194 -9 q 163 -9 137 -2 q 112 4 90 18 q 85 13 82 12 q 79 10 73 10 q 58 10 53 31 q 48 53 48 151 l 48 178 q 48 294 54 396 q 60 499 69 554 q 73 578 80 585 q 87 593 103 593 q 113 593 120 588 q 127 583 127 575 q 127 570 124 566 q 120 562 114 560 q 108 532 103 449 q 97 366 94 255 z"},"%":{"x_min":0,"x_max":819,"ha":819,"o":"m 792 237 q 800 232 804 225 q 808 218 808 208 q 808 205 807 200 q 807 196 804 187 l 804 163 q 804 82 753 24 q 702 -34 631 -34 q 570 -34 532 10 q 494 54 494 126 q 494 210 544 269 q 595 327 663 327 q 707 327 740 304 q 773 281 792 237 z m 767 233 q 746 269 721 285 q 697 301 664 301 q 612 301 569 248 q 526 195 526 127 q 526 69 557 34 q 587 -2 637 -2 q 693 -2 735 49 q 777 100 777 168 l 777 187 q 771 192 769 198 q 766 205 766 213 l 766 225 q 766 226 767 229 q 767 231 767 233 z m 303 554 q 289 589 262 608 q 235 627 199 627 q 142 627 101 575 q 59 523 59 449 q 59 392 90 356 q 120 321 167 321 q 223 321 266 373 q 310 426 310 494 q 310 498 310 502 q 310 506 309 512 q 304 517 302 523 q 299 529 299 536 q 299 541 300 545 q 301 550 303 554 z m 539 580 q 508 557 481 546 q 454 536 425 536 q 399 536 374 543 q 349 551 326 566 q 333 551 337 542 q 340 534 340 527 q 340 523 339 520 q 338 517 337 514 l 337 494 q 337 408 288 348 q 238 289 166 289 q 104 289 65 332 q 26 375 26 444 q 26 533 76 592 q 127 651 201 651 q 234 651 259 639 q 285 628 308 602 q 334 582 363 571 q 393 560 423 560 q 458 560 492 574 q 526 589 556 616 l 568 643 q 571 650 575 653 q 579 656 584 656 q 590 656 594 653 q 597 651 597 647 q 597 637 589 623 q 588 620 587 618 l 200 -156 q 194 -169 188 -175 q 182 -181 175 -181 q 170 -181 166 -177 q 161 -172 161 -167 q 161 -160 170 -142 q 174 -134 176 -130 z"},"m":{"x_min":0,"x_max":433,"ha":433,"o":"m 231 69 q 230 66 229 60 q 221 14 202 14 q 175 14 175 145 q 175 225 173 278 l 157 233 q 99 70 95 45 q 96 40 96 35 q 96 30 96 21 q 96 6 92 0 q 87 -5 76 -5 q 62 -5 57 6 q 52 18 52 57 l 52 90 q 52 113 54 190 q 56 268 56 323 q 54 329 52 333 q 51 337 51 340 q 51 347 54 350 q 58 354 64 354 q 76 354 83 344 q 90 334 90 316 q 90 314 87 235 q 83 156 83 77 q 91 102 104 146 q 156 313 174 313 q 190 313 196 302 q 201 290 201 243 l 201 205 l 201 162 q 201 144 201 122 q 202 100 203 59 q 240 173 286 300 q 299 335 302 344 q 303 347 304 352 q 314 384 332 384 q 348 384 354 369 q 360 355 360 295 q 360 279 359 245 q 359 212 359 195 q 359 103 374 61 q 389 19 421 19 q 436 19 446 29 q 457 39 459 39 q 462 39 465 37 q 467 35 467 30 q 467 14 452 0 q 437 -14 418 -14 q 371 -14 349 37 q 327 89 327 198 l 327 277 q 327 279 327 288 q 326 314 326 339 q 305 276 282 210 q 259 144 231 69 z"},"#":{"x_min":0,"x_max":769,"ha":769,"o":"m 478 423 l 346 423 l 298 285 l 429 285 z m 447 710 l 362 467 l 494 467 l 580 710 l 634 710 l 549 467 l 706 467 l 691 423 l 533 423 l 484 285 l 654 285 l 639 241 l 468 241 l 383 0 l 328 0 l 414 241 l 282 241 l 195 0 l 141 0 l 226 241 l 63 241 l 78 285 l 242 285 l 291 423 l 115 423 l 129 467 l 307 467 l 393 710 z"},",":{"x_min":0,"x_max":295,"ha":295,"o":"m 108 1 q 100 14 96 24 q 92 35 92 43 q 92 57 100 66 q 108 75 119 75 q 132 75 141 64 q 149 52 149 33 q 149 19 139 -17 q 129 -52 125 -72 q 124 -76 123 -83 q 119 -104 111 -104 q 107 -104 105 -100 q 102 -96 102 -91 q 102 -88 104 -76 q 108 -34 108 1 z"},"n":{"x_min":0,"x_max":346,"ha":346,"o":"m 96 56 q 126 133 165 244 q 211 376 229 376 q 244 376 249 371 q 253 366 253 349 q 253 337 252 300 q 251 263 251 238 q 251 150 266 102 q 280 53 306 53 q 311 53 318 56 q 325 58 328 58 q 332 58 335 53 q 338 48 338 41 q 338 27 327 17 q 316 8 300 8 q 259 8 239 53 q 219 98 219 190 q 219 221 222 298 q 223 313 223 321 q 180 220 144 106 q 109 -9 87 -9 q 68 -9 62 35 q 55 79 55 224 q 55 271 60 314 q 61 322 61 323 q 61 342 56 359 q 51 376 51 377 q 51 385 61 391 q 72 397 86 397 q 96 397 101 392 q 106 388 106 378 q 106 376 104 369 q 90 311 90 232 q 90 163 91 123 q 93 83 96 56 z"},"h":{"x_min":0,"x_max":363,"ha":363,"o":"m 104 296 q 156 313 194 393 q 231 473 231 574 q 231 635 217 673 q 202 711 181 711 q 150 711 132 618 q 115 525 104 296 z m 109 75 q 154 216 177 262 q 201 308 222 308 q 253 308 265 202 q 267 177 269 163 q 280 75 290 53 q 299 31 319 31 q 329 31 343 42 q 356 54 361 54 q 368 54 370 51 q 373 48 373 43 q 373 29 354 14 q 335 -1 313 -1 q 285 -1 268 22 q 250 46 242 95 q 238 120 232 182 q 226 245 216 277 q 173 192 152 137 q 131 82 124 41 q 125 30 126 23 q 127 17 127 15 q 127 -1 121 -11 q 116 -20 106 -20 q 84 -20 76 27 q 67 75 67 199 q 67 200 67 213 q 68 227 68 239 l 68 267 q 65 276 64 281 q 63 285 63 287 q 63 290 64 295 q 66 300 69 307 q 82 572 105 656 q 128 741 178 741 q 216 741 241 695 q 265 649 265 575 q 265 470 218 380 q 171 290 104 263 q 104 208 105 163 q 106 117 109 75 z"},"z":{"x_min":0,"x_max":359,"ha":359,"o":"m 263 302 q 256 303 247 303 q 238 303 217 303 q 179 303 139 301 q 99 299 97 299 q 81 299 73 305 q 64 311 64 322 q 64 332 71 337 q 78 343 91 343 q 97 343 104 341 q 111 340 129 334 q 146 333 163 333 q 181 333 210 333 q 240 333 273 334 q 307 335 309 335 q 319 335 324 332 q 328 329 328 322 q 328 311 234 220 q 140 129 66 31 q 133 36 189 39 q 244 41 286 41 q 331 41 345 34 q 360 28 360 11 q 360 3 355 -2 q 351 -8 344 -8 q 343 -8 338 -6 q 302 7 239 7 q 163 7 74 -7 q 48 -11 42 -11 q 29 -11 22 -5 q 15 0 15 11 q 15 32 85 116 q 155 200 263 302 z"},"B":{"x_min":0,"x_max":650,"ha":650,"o":"m 176 371 q 241 377 309 399 q 377 422 463 466 q 567 519 626 572 q 685 625 685 664 q 685 703 641 723 q 598 742 510 742 q 428 742 355 733 q 283 725 226 708 q 206 620 194 536 q 181 452 176 371 z m 168 80 q 173 83 177 84 q 182 85 185 85 q 195 85 202 78 q 209 71 213 57 q 234 41 271 31 q 309 22 357 22 q 439 22 497 69 q 554 115 554 178 q 554 246 474 292 q 394 339 274 339 q 256 339 230 336 q 204 333 173 326 q 169 270 167 237 q 166 204 166 178 q 166 158 167 105 q 168 89 168 80 z m 173 37 l 173 35 q 173 27 177 19 q 181 11 181 8 q 181 0 174 -4 q 167 -8 152 -8 q 134 -8 126 -3 q 118 1 118 11 q 118 16 119 20 q 120 24 122 28 q 122 51 121 93 q 120 135 120 148 q 120 178 122 217 q 123 256 127 320 l 124 320 q 110 320 101 327 q 92 333 92 343 q 92 353 102 359 q 112 365 130 367 q 137 446 150 527 q 162 609 180 695 l 168 692 q 45 661 12 649 q 2 637 -6 632 q -15 626 -23 626 q -32 626 -37 631 q -42 636 -42 645 q -42 666 43 692 l 44 692 q 173 732 282 751 q 391 770 489 770 q 600 770 659 741 q 718 713 718 659 q 718 592 614 515 q 510 439 325 371 q 456 350 523 299 q 590 248 590 169 q 590 90 526 41 q 462 -9 359 -9 q 300 -9 253 3 q 207 14 173 37 z"},"K":{"x_min":0,"x_max":502,"ha":502,"o":"m 109 224 q 277 420 350 498 q 423 575 439 575 q 448 575 458 565 q 468 556 468 546 q 468 538 462 533 q 457 529 446 529 q 347 437 272 356 q 197 276 151 213 q 176 222 197 227 q 218 231 236 231 q 302 231 333 146 q 341 124 346 112 q 359 79 382 62 q 404 46 435 46 q 443 46 449 47 q 456 48 462 50 q 463 57 466 60 q 469 64 473 64 q 483 64 493 50 q 503 37 503 26 q 503 13 490 7 q 477 0 451 0 q 402 0 366 21 q 331 43 315 82 q 307 103 299 140 q 289 197 244 197 q 220 197 184 188 q 147 180 108 164 q 107 158 106 147 q 102 106 102 91 q 102 79 105 43 q 105 33 106 27 q 112 24 114 21 q 116 18 116 12 q 116 2 109 -3 q 101 -9 89 -9 q 70 -9 64 -3 q 57 3 57 24 q 57 105 64 226 q 70 347 82 471 q 83 481 84 499 q 98 639 121 639 q 134 639 142 632 q 150 625 150 615 q 150 609 148 605 q 146 602 141 600 q 129 559 122 467 q 114 375 109 224 z"},"R":{"x_min":0,"x_max":608,"ha":608,"o":"m 155 420 q 209 601 284 696 q 358 790 445 790 q 525 790 580 722 q 635 654 635 550 q 635 407 539 316 q 442 224 273 207 q 355 119 405 79 q 455 39 481 39 q 489 39 496 43 q 504 47 505 47 q 509 47 512 44 q 515 42 515 37 q 515 22 503 10 q 491 -2 474 -2 q 443 -2 385 45 q 327 92 225 200 q 205 201 186 206 q 167 211 147 222 q 146 211 146 199 q 146 188 146 165 q 146 135 147 108 q 149 81 152 57 q 156 44 158 32 q 160 21 160 12 q 160 -1 155 -9 q 150 -17 141 -17 q 125 -17 118 -3 q 112 11 112 50 q 112 188 116 327 q 121 466 129 608 q 129 618 130 635 q 135 720 158 720 q 168 720 183 711 q 198 702 198 691 q 198 684 193 680 q 189 675 181 675 q 173 647 167 594 q 162 541 155 420 z m 150 262 q 157 259 163 254 q 168 249 173 241 q 186 238 198 236 q 210 235 222 235 q 287 235 356 257 q 424 279 474 316 q 533 359 565 423 q 596 486 596 563 q 596 648 552 704 q 507 760 443 760 q 392 760 342 715 q 293 670 245 579 q 201 495 175 415 q 150 335 150 282 l 150 272 z"},"T":{"x_min":0,"x_max":419,"ha":419,"o":"m 264 699 l 226 699 q 168 699 88 690 q 9 680 -11 680 q -28 680 -36 687 q -44 693 -44 706 q -44 720 -35 726 q -25 731 14 731 q 93 731 240 738 q 387 745 454 745 q 563 745 595 737 q 627 729 627 709 q 627 701 623 697 q 619 693 612 693 q 605 693 600 696 q 594 698 590 704 q 566 707 541 708 q 515 710 489 710 q 462 710 425 708 q 387 707 317 703 q 288 617 270 451 q 252 285 252 88 q 252 69 253 54 q 255 40 258 27 q 268 22 272 18 q 277 14 277 10 q 277 1 264 -6 q 251 -14 234 -14 q 218 -14 213 0 q 208 13 208 57 q 208 237 222 401 q 237 564 264 699 z"},"P":{"x_min":0,"x_max":510,"ha":510,"o":"m 154 713 l 127 713 q 94 713 60 703 q 25 693 23 693 q 13 693 6 698 q 0 704 0 712 q 0 729 44 737 q 88 745 175 745 q 362 745 463 693 q 565 642 565 547 q 565 478 516 408 q 466 338 384 290 q 337 262 285 248 q 233 234 180 234 q 170 234 165 234 q 160 234 155 235 q 153 216 152 190 q 151 163 151 124 q 151 88 152 70 q 153 51 156 42 q 158 34 165 24 q 171 13 171 10 q 171 1 163 -4 q 155 -9 141 -9 q 126 -9 121 0 q 116 10 116 49 l 116 70 q 116 230 125 390 q 135 551 154 713 z m 198 712 q 180 598 169 492 q 159 387 156 289 q 164 286 169 281 q 175 275 180 268 q 320 276 423 360 q 526 444 526 546 q 526 626 449 668 q 372 711 226 711 q 222 711 212 711 q 203 712 198 712 z"},"|":{"x_min":0,"x_max":500,"ha":500,"o":"m 272 764 l 272 -236 l 228 -236 l 228 764 z"},"t":{"x_min":0,"x_max":257,"ha":257,"o":"m 101 325 q 72 322 54 321 q 37 320 25 320 q 5 320 -3 324 q -11 328 -11 338 q -11 358 58 358 q 87 358 105 359 q 108 386 111 429 q 119 523 151 523 q 159 523 162 520 q 165 517 165 505 q 165 501 158 454 q 152 407 147 362 q 193 361 209 357 q 224 352 224 341 q 224 334 219 331 q 213 328 202 328 l 181 328 l 141 328 q 133 271 128 220 q 124 169 124 137 q 124 81 138 50 q 152 18 176 18 q 185 18 192 24 q 199 31 204 31 q 210 31 212 29 q 215 27 215 22 q 215 8 201 -3 q 187 -14 167 -14 q 129 -14 108 23 q 87 60 87 126 q 87 155 91 206 q 94 258 101 325 z"},"M":{"x_min":0,"x_max":741,"ha":741,"o":"m 157 611 q 153 431 140 281 q 128 131 108 20 q 91 -77 73 -101 q 56 -124 20 -124 q 11 -124 5 -120 q -1 -115 -1 -109 q -1 -101 21 -92 q 43 -83 54 -58 q 78 -1 101 191 q 124 384 124 605 q 124 668 115 710 q 114 715 114 716 q 114 726 122 730 q 131 735 148 735 q 162 735 168 728 q 175 721 178 705 q 189 632 217 510 q 223 482 226 469 q 235 428 250 355 q 310 76 340 76 q 364 76 465 353 q 502 455 525 515 q 561 613 589 687 q 616 760 620 769 q 626 781 638 785 q 650 789 677 789 q 688 789 695 785 q 701 781 701 775 q 701 771 689 759 q 677 746 672 723 q 662 677 654 566 q 646 455 646 322 q 646 235 652 157 q 658 79 665 42 q 670 21 683 16 q 697 10 697 5 q 697 -5 684 -11 q 671 -18 649 -18 q 635 -18 629 -10 q 624 -2 620 35 q 614 99 611 165 q 608 230 608 297 q 608 394 613 490 q 617 586 626 682 q 562 532 479 306 q 382 41 334 41 q 284 41 232 286 q 192 479 157 611 z"},"g":{"x_min":0,"x_max":433,"ha":433,"o":"m 346 27 q 345 62 343 96 q 341 130 337 166 q 307 79 264 35 q 221 -10 166 -10 q 106 -10 70 43 q 34 95 34 183 q 34 304 86 386 q 137 468 213 468 q 267 468 307 437 q 347 405 362 352 q 369 349 373 342 q 377 335 377 326 q 377 325 375 302 q 373 279 373 256 q 373 215 377 144 q 382 72 382 42 q 382 -97 335 -183 q 288 -270 217 -270 q 185 -270 166 -250 q 147 -229 147 -195 q 147 -136 210 -64 q 272 8 346 27 z m 334 306 q 319 319 313 354 q 312 363 311 368 q 306 395 277 417 q 248 439 214 439 q 155 439 113 365 q 71 292 71 186 q 71 114 101 71 q 131 27 179 27 q 239 27 279 99 q 319 171 334 306 z m 344 -13 l 334 -13 l 316 -13 q 255 -48 214 -103 q 173 -157 173 -196 q 173 -217 183 -229 q 194 -241 212 -241 q 259 -241 298 -176 q 338 -111 344 -13 z"},"j":{"x_min":0,"x_max":201,"ha":201,"o":"m 123 334 q 119 313 117 274 q 115 235 115 181 q 115 115 120 31 q 124 -52 124 -68 q 124 -144 92 -184 q 60 -224 0 -224 q -38 -224 -67 -207 q -96 -189 -96 -170 q -96 -162 -88 -152 q -80 -143 -72 -143 q -60 -143 -57 -163 q -56 -170 -55 -174 q -53 -184 -39 -192 q -26 -200 -9 -200 q 38 -200 62 -162 q 87 -123 87 -50 q 87 -29 81 74 q 74 177 74 260 q 74 329 82 352 q 89 375 108 375 q 120 375 131 367 q 141 359 141 351 q 141 343 136 339 q 132 335 123 334 z m 106 510 q 94 510 91 508 q 88 506 88 502 q 88 498 90 496 q 93 494 103 494 q 117 494 122 496 q 126 498 126 503 q 126 506 121 508 q 117 510 106 510 z m 55 496 q 55 513 68 522 q 80 532 102 532 q 125 532 140 521 q 156 510 156 495 q 156 480 143 471 q 130 462 107 462 q 82 462 69 471 q 55 480 55 496 z"},"i":{"x_min":0,"x_max":206,"ha":206,"o":"m 107 369 q 118 369 123 365 q 128 360 128 350 q 128 349 125 340 q 102 258 102 143 q 102 78 107 56 q 112 33 126 33 q 127 33 134 35 q 140 36 144 36 q 150 36 155 31 q 159 27 159 21 q 159 11 148 1 q 137 -9 124 -9 q 92 -9 77 43 q 63 96 63 217 q 63 298 73 333 q 83 369 107 369 z m 67 505 q 67 520 79 530 q 90 540 108 540 q 127 540 138 530 q 150 520 150 503 q 150 489 138 480 q 127 471 109 471 q 91 471 79 481 q 67 491 67 505 z"},"y":{"x_min":0,"x_max":387,"ha":387,"o":"m 274 229 q 237 107 203 54 q 169 1 128 1 q 88 1 68 42 q 48 84 48 165 q 48 207 54 264 q 61 322 73 385 q 81 426 89 441 q 97 455 110 455 q 118 455 122 450 q 126 446 126 437 q 126 431 118 410 q 112 395 109 386 q 96 331 90 277 q 84 224 84 169 q 84 101 95 71 q 107 41 132 41 q 165 41 198 105 q 232 169 251 271 q 260 319 261 382 q 263 437 284 437 q 296 437 300 432 q 305 427 305 412 q 305 403 303 387 q 302 371 302 364 q 302 280 313 151 q 325 23 325 -21 q 325 -146 284 -211 q 242 -276 162 -276 q 122 -276 89 -259 q 57 -243 57 -223 q 57 -214 64 -207 q 70 -200 79 -200 q 88 -200 94 -207 q 100 -214 103 -230 q 111 -241 123 -246 q 135 -251 152 -251 q 217 -251 256 -188 q 294 -125 294 -17 q 294 19 289 85 q 283 151 274 229 z"},"@":{"x_min":0,"x_max":1000,"ha":1000,"o":"m 636 404 l 666 467 l 705 467 l 638 197 q 633 179 631 165 q 628 151 628 144 q 628 123 643 111 q 658 99 685 99 q 708 99 734 109 q 759 118 784 136 q 833 172 863 237 q 893 302 893 375 q 893 508 796 590 q 698 671 539 671 q 457 671 387 647 q 318 624 261 577 q 186 515 148 432 q 110 350 110 249 q 110 89 218 -6 q 326 -101 507 -101 q 585 -101 665 -76 q 745 -52 811 -7 l 825 -29 q 754 -83 675 -109 q 595 -136 509 -136 q 417 -136 341 -114 q 265 -91 206 -46 q 132 10 95 85 q 59 159 59 255 q 59 334 84 405 q 108 476 156 534 q 226 620 324 664 q 423 708 544 708 q 622 708 693 687 q 763 665 814 626 q 876 578 909 515 q 941 453 941 380 q 941 297 910 229 q 879 162 822 116 q 789 90 751 76 q 712 62 673 62 q 626 62 603 80 q 579 98 579 133 q 579 139 581 149 q 581 151 581 152 q 557 109 520 85 q 483 62 439 62 q 364 62 325 103 q 286 143 286 221 q 286 333 352 410 q 417 487 511 487 q 558 487 589 466 q 621 445 636 404 z m 595 228 l 626 352 q 615 400 586 426 q 557 451 512 451 q 438 451 387 384 q 337 316 337 218 q 337 162 365 130 q 393 98 443 98 q 497 98 539 134 q 580 169 595 228 z"},".":{"x_min":0,"x_max":295,"ha":295,"o":"m 69 25 q 69 40 83 51 q 98 62 117 62 q 135 62 145 53 q 156 44 156 29 q 156 14 143 2 q 131 -9 112 -9 q 93 -9 81 1 q 69 10 69 25 z"},"p":{"x_min":0,"x_max":409,"ha":409,"o":"m 88 55 q 99 52 105 47 q 111 42 115 32 q 126 27 139 24 q 151 22 171 22 q 246 22 292 68 q 337 114 337 190 q 337 250 306 291 q 276 331 232 331 q 174 331 133 253 q 91 176 88 55 z m 89 230 q 124 301 156 331 q 189 361 230 361 q 290 361 333 307 q 377 252 377 174 q 377 95 320 46 q 263 -4 172 -4 q 145 -4 123 1 q 102 5 84 15 q 83 7 83 -2 q 83 -11 83 -27 q 83 -158 104 -204 q 105 -208 105 -208 q 105 -215 101 -219 q 96 -223 87 -223 q 65 -223 57 -185 q 49 -146 49 -23 q 49 30 53 106 q 57 183 67 305 q 68 315 69 333 q 72 392 86 392 q 94 392 100 383 q 106 374 106 360 q 106 357 100 314 q 93 271 89 230 z"},"X":{"x_min":0,"x_max":583,"ha":583,"o":"m 263 338 q 141 125 87 48 q 33 -29 8 -29 q 0 -29 -7 -22 q -13 -15 -13 -6 q -13 4 -5 10 q 3 16 16 16 q 52 46 104 126 q 155 205 243 369 q 168 493 124 586 q 80 680 80 713 q 80 726 87 731 q 93 737 107 737 q 111 737 115 733 q 118 729 118 724 q 118 719 118 714 q 117 708 117 707 q 117 678 157 593 q 197 508 262 405 q 302 471 359 572 q 441 716 462 716 q 472 716 480 707 q 488 699 488 689 q 488 681 470 669 q 452 657 438 638 q 415 607 365 516 q 314 425 284 374 q 373 229 432 151 q 490 72 525 52 q 528 58 532 61 q 537 64 540 64 q 549 64 557 56 q 565 48 565 39 q 565 29 552 17 q 539 5 526 5 q 496 5 430 89 q 364 172 263 338 z"},"*":{"x_min":0,"x_max":440,"ha":440,"o":"m 207 449 q 178 425 152 404 q 126 382 101 362 q 95 352 88 346 q 81 340 74 340 q 67 340 62 345 q 56 351 56 358 q 56 366 63 372 q 71 379 86 385 q 125 417 147 435 q 170 453 191 470 q 168 488 142 508 q 115 528 84 551 q 73 554 67 559 q 61 564 61 572 q 61 579 65 583 q 69 588 75 588 q 81 588 87 583 q 94 578 100 569 l 110 562 q 171 516 209 490 l 209 558 q 209 576 209 593 q 208 609 208 627 q 206 633 204 637 q 203 642 203 645 q 203 653 208 658 q 213 664 219 664 q 229 664 234 658 q 240 653 240 644 q 240 641 239 637 q 237 634 234 627 q 232 607 232 592 q 231 576 231 564 q 231 553 232 537 q 232 521 234 503 q 263 524 289 543 q 314 562 337 579 q 343 591 349 597 q 356 603 363 603 q 371 603 376 598 q 381 593 381 586 q 381 579 375 573 q 370 567 357 562 q 330 542 300 520 q 270 497 236 471 q 279 442 307 424 q 334 405 359 390 q 375 387 383 381 q 391 374 391 365 q 391 358 386 354 q 380 349 372 349 q 365 349 358 354 q 351 358 343 369 q 314 386 285 404 q 257 422 229 441 l 229 354 l 229 315 q 229 313 230 309 q 233 298 233 294 q 233 285 228 278 q 223 272 216 272 q 209 272 205 278 q 200 284 200 294 q 200 296 201 301 q 202 306 203 311 q 204 368 205 396 q 206 425 207 449 z"},"Y":{"x_min":0,"x_max":516,"ha":516,"o":"m 399 318 q 363 140 309 48 q 255 -43 187 -43 q 134 -43 104 0 q 74 43 74 120 q 74 198 97 323 q 120 449 162 597 q 168 619 178 654 q 204 751 245 751 q 256 751 261 749 q 267 747 267 743 q 267 740 264 738 q 261 735 256 734 q 189 552 152 387 q 114 222 114 125 q 114 59 134 22 q 153 -14 188 -14 q 234 -14 277 60 q 320 134 354 274 q 381 386 399 499 q 416 612 416 647 q 416 650 416 657 q 415 663 415 666 q 415 678 420 684 q 425 691 434 691 q 442 691 448 684 q 453 678 453 668 q 453 667 452 652 q 436 494 436 290 q 436 219 439 115 q 442 10 442 -24 q 442 -144 406 -200 q 369 -257 292 -257 q 255 -257 230 -247 q 204 -237 204 -225 q 204 -217 212 -212 q 221 -207 233 -207 q 240 -207 245 -213 q 249 -219 250 -229 q 262 -235 271 -238 q 281 -240 291 -240 q 353 -240 381 -176 q 409 -112 409 32 q 409 102 406 174 q 404 245 399 318 z"},"c":{"x_min":0,"x_max":396,"ha":396,"o":"m 263 381 l 266 381 q 279 381 285 374 q 291 368 291 353 q 291 321 278 290 q 265 258 249 258 q 239 258 233 265 q 228 271 228 284 q 228 288 230 310 q 233 333 233 351 q 233 401 218 430 q 203 458 178 458 q 157 458 140 439 q 123 421 108 382 q 90 333 80 283 q 70 234 70 192 q 70 108 109 60 q 148 12 215 12 q 258 12 292 29 q 326 45 346 76 q 345 80 344 83 q 344 86 344 92 q 344 103 349 110 q 354 116 363 116 q 374 116 379 110 q 384 104 384 93 q 384 58 328 22 q 272 -14 206 -14 q 126 -14 79 42 q 32 97 32 192 q 32 238 44 291 q 56 344 79 396 q 100 443 123 464 q 146 485 177 485 q 213 485 235 458 q 258 431 263 381 z"},"!":{"x_min":0,"x_max":264,"ha":264,"o":"m 140 233 q 146 226 148 220 q 151 214 151 208 q 151 198 144 192 q 138 187 125 187 q 108 187 103 196 q 97 205 97 241 q 97 245 102 407 q 106 570 109 736 q 104 741 102 746 q 99 750 99 755 q 99 767 108 775 q 117 783 131 783 q 148 783 156 775 q 165 768 165 752 q 165 748 164 741 q 163 734 161 726 q 150 606 144 497 q 138 389 138 303 q 138 290 139 253 q 140 240 140 233 z m 93 31 q 93 25 97 22 q 101 19 108 19 q 124 19 131 23 q 139 26 139 34 q 139 38 134 41 q 128 44 119 44 q 105 44 99 41 q 93 38 93 31 z m 61 37 q 61 57 80 71 q 98 85 126 85 q 150 85 165 73 q 180 62 180 43 q 180 21 162 7 q 144 -7 116 -7 q 90 -7 75 5 q 61 16 61 37 z"},"/":{"x_min":0,"x_max":306,"ha":306,"o":"m 364 620 q 330 581 203 313 q 151 203 120 139 q 106 109 83 60 q 16 -81 -4 -81 q -14 -81 -20 -74 q -26 -67 -26 -57 q -26 -52 63 118 q 152 289 237 462 q 298 586 326 625 q 354 664 375 664 q 381 664 385 659 q 389 654 389 648 q 389 640 382 632 q 375 624 364 620 z"},"[":{"x_min":0,"x_max":282,"ha":282,"o":"m 122 -74 q 148 -72 171 -70 q 195 -69 211 -69 q 264 -69 283 -73 q 303 -77 303 -87 q 303 -94 299 -97 q 294 -101 285 -101 q 285 -101 275 -100 q 266 -99 256 -99 q 182 -99 115 -108 q 105 -110 103 -110 q 90 -110 83 -105 q 75 -100 75 -91 q 75 -87 77 -82 q 80 -77 84 -72 q 84 -62 83 -44 q 83 -26 83 -18 l 83 81 q 83 240 86 395 q 89 549 96 699 q 92 705 90 709 q 88 714 88 718 q 88 728 94 732 q 101 736 116 736 q 232 736 268 731 q 303 727 303 715 q 303 709 298 706 q 293 702 285 702 q 284 702 281 702 q 267 703 256 703 q 217 703 189 702 q 162 701 135 699 q 129 632 125 452 q 120 272 120 44 q 120 20 120 -6 q 121 -32 122 -74 z"},"6":{"x_min":0,"x_max":463,"ha":463,"o":"m 76 240 q 76 234 75 227 q 75 220 75 207 q 75 121 116 71 q 158 20 228 20 q 297 20 341 71 q 385 122 385 201 q 385 268 343 312 q 301 355 238 355 q 201 355 169 337 q 137 320 113 287 q 103 259 95 251 q 88 243 76 240 z m 79 306 q 113 348 155 369 q 196 390 243 390 q 322 390 373 335 q 424 281 424 196 q 424 102 368 39 q 312 -25 227 -25 q 133 -25 79 44 q 26 112 26 235 q 26 394 96 491 q 167 589 281 589 q 336 589 377 568 q 419 546 419 522 q 419 512 413 505 q 406 499 396 499 q 383 499 372 508 q 360 518 354 534 q 335 546 316 552 q 298 557 278 557 q 200 557 146 490 q 93 423 79 306 z"},"r":{"x_min":0,"x_max":289,"ha":289,"o":"m 161 349 q 146 349 134 350 q 122 351 110 353 q 101 186 81 85 q 60 -15 36 -15 q 29 -15 24 -9 q 18 -3 18 3 q 18 7 21 10 q 25 14 31 17 q 50 69 61 164 q 72 259 73 376 q 66 389 62 402 q 59 416 59 431 q 59 445 65 454 q 72 462 82 462 q 101 462 109 454 q 117 447 117 423 l 117 415 q 117 398 124 391 q 130 384 145 384 q 163 384 176 396 q 189 409 194 409 q 201 409 205 406 q 208 402 208 395 q 208 391 203 375 q 197 358 195 347 q 191 325 189 289 q 187 254 187 185 q 187 101 199 72 q 211 43 242 43 q 258 43 275 54 q 291 66 293 66 q 300 66 303 63 q 307 61 307 55 q 307 42 281 25 q 254 8 230 8 q 190 8 170 43 q 151 78 151 149 q 151 197 154 248 q 156 298 161 349 z"},"2":{"x_min":0,"x_max":484,"ha":484,"o":"m 65 19 q 152 35 229 43 q 305 52 366 52 q 425 52 454 45 q 482 38 482 23 q 482 17 477 13 q 473 9 465 9 q 459 9 416 15 q 374 22 339 22 q 309 22 253 15 q 197 8 126 -4 q 98 -9 68 -17 q 39 -25 37 -25 q 27 -25 21 -15 q 14 -4 14 10 q 14 27 94 96 q 136 132 163 156 q 288 267 342 344 q 397 422 397 487 q 397 537 368 568 q 339 598 291 598 q 219 598 156 540 q 92 481 88 407 q 94 396 96 386 q 99 377 99 369 q 99 354 91 343 q 83 333 72 333 q 59 333 51 347 q 43 362 43 387 q 43 421 59 458 q 76 495 107 530 q 149 579 201 607 q 252 635 298 635 q 357 635 397 593 q 437 551 437 489 q 437 354 122 70 q 84 37 65 19 z"},"{":{"x_min":0,"x_max":500,"ha":500,"o":"m 414 678 l 396 678 q 330 678 307 653 q 284 628 284 549 l 284 431 q 284 346 263 310 q 242 274 189 259 q 242 243 263 208 q 284 173 284 87 l 284 -31 q 284 -110 307 -135 q 330 -159 395 -159 l 414 -159 l 414 -202 l 393 -202 q 301 -202 267 -166 q 234 -129 234 -19 l 234 98 q 234 175 206 207 q 177 238 108 238 q 104 238 97 237 q 90 237 86 237 l 86 281 q 91 280 96 280 q 101 280 110 280 q 178 280 206 311 q 234 343 234 420 l 234 537 q 234 648 267 685 q 301 721 393 721 l 414 721 z"},"9":{"x_min":0,"x_max":502,"ha":502,"o":"m 74 356 q 74 275 115 225 q 155 175 219 175 q 263 175 300 201 q 337 227 371 283 q 398 327 412 374 q 427 420 427 463 q 427 534 389 577 q 351 620 288 620 q 203 620 139 541 q 74 462 74 356 z m 423 312 q 379 224 326 180 q 273 136 210 136 q 132 136 84 192 q 36 249 36 343 q 36 415 61 476 q 86 538 134 582 q 170 616 213 634 q 255 652 299 652 q 385 652 428 594 q 471 537 471 421 q 471 208 407 97 q 342 -14 219 -14 q 169 -14 134 5 q 99 23 99 48 q 99 57 104 63 q 109 69 117 69 q 124 69 155 42 q 186 15 222 15 q 309 15 361 91 q 412 167 423 312 z"}," ":{"x_min":0,"x_max":295,"ha":295,"o":""},"I":{"x_min":0,"x_max":289,"ha":289,"o":"m 120 27 q 119 66 118 105 q 117 145 117 200 q 117 360 125 464 q 132 568 148 644 q 110 640 88 637 q 66 635 61 635 q 49 635 45 638 q 40 642 40 649 q 40 660 53 666 q 67 672 92 672 q 110 672 172 679 q 234 686 278 686 q 308 686 324 680 q 340 674 340 663 q 340 656 336 652 q 333 649 326 649 q 323 649 303 653 q 284 657 267 657 q 247 657 186 648 l 182 648 q 167 586 159 476 q 151 366 151 207 q 151 142 153 104 q 156 66 161 31 l 184 31 l 215 31 q 247 31 258 27 q 269 22 269 12 q 269 5 265 1 q 261 -2 252 -2 q 250 -2 223 0 q 196 3 171 3 q 138 3 104 -3 q 70 -9 68 -9 q 56 -9 49 -4 q 43 1 43 11 q 43 20 52 23 q 60 27 97 27 z"},"H":{"x_min":0,"x_max":704,"ha":704,"o":"m 234 413 q 312 413 389 360 q 466 307 552 194 q 552 199 551 209 q 551 219 551 223 l 551 258 q 551 338 553 419 q 556 499 560 578 q 563 625 569 636 q 574 648 587 648 q 602 648 612 640 q 623 631 623 621 q 623 618 612 603 q 600 588 597 562 q 590 502 587 417 q 584 332 584 217 l 584 167 q 591 161 594 155 q 598 150 598 144 q 598 140 594 136 q 591 132 584 129 q 584 102 593 71 q 602 40 602 34 q 602 17 594 5 q 585 -8 575 -8 q 565 -8 559 2 q 553 12 553 28 q 553 32 554 45 q 555 58 555 66 q 555 74 553 83 q 551 93 547 108 q 504 101 465 97 q 426 93 391 93 q 354 93 314 96 q 275 100 233 107 l 233 81 q 233 59 238 39 q 242 19 242 18 q 242 6 235 -2 q 228 -10 218 -10 q 208 -10 201 -2 q 195 5 195 18 q 195 24 195 31 q 196 38 196 39 q 196 45 197 64 q 198 83 198 95 q 198 100 198 106 q 197 112 197 118 q 100 147 54 183 q 9 218 9 266 q 9 319 60 358 q 112 397 198 409 q 200 445 200 500 q 202 605 229 605 q 241 605 248 601 q 255 597 255 590 q 255 586 248 578 q 241 569 240 565 q 237 556 236 515 q 234 474 234 413 z m 196 149 q 196 181 197 210 q 197 239 197 265 q 197 339 196 377 q 126 368 88 338 q 50 309 50 266 q 50 226 84 198 q 118 171 196 149 z m 232 381 q 231 353 231 326 q 231 299 231 265 q 231 211 231 184 q 231 157 232 134 q 266 127 301 124 q 335 121 372 121 q 423 121 463 126 q 503 131 536 142 q 472 254 392 318 q 312 381 236 381 z"},"4":{"x_min":0,"x_max":424,"ha":424,"o":"m 278 127 q 202 122 122 113 q 42 105 34 105 q 7 105 -7 115 q -20 125 -20 146 q -20 178 24 253 q 68 329 159 451 l 169 465 q 304 647 333 647 q 342 647 346 640 q 350 634 350 619 q 350 612 347 566 q 333 366 327 169 q 328 169 331 169 q 432 167 432 141 q 432 133 425 126 q 417 120 406 120 q 403 120 381 125 q 359 131 339 131 l 324 131 q 319 46 311 17 q 303 -12 287 -12 q 278 -12 274 -7 q 269 -1 269 9 q 269 14 272 53 q 276 92 278 127 z m 281 164 q 288 294 294 394 q 300 493 306 585 q 186 441 102 313 q 19 185 19 159 q 19 149 25 144 q 31 139 43 139 q 47 139 126 148 q 205 158 281 164 z"},"~":{"x_min":0,"x_max":833,"ha":833,"o":"m 747 316 q 695 280 648 262 q 602 244 558 244 q 510 244 428 274 q 420 277 417 278 q 412 280 401 284 q 320 313 276 313 q 235 313 190 295 q 146 276 87 235 l 87 280 q 138 316 185 333 q 232 351 276 351 q 325 351 408 321 q 414 319 417 318 q 421 316 431 313 q 513 283 558 283 q 599 283 644 302 q 688 320 747 361 z"},"D":{"x_min":0,"x_max":672,"ha":672,"o":"m 153 54 q 167 39 186 32 q 205 26 235 26 q 289 26 343 41 q 397 56 443 84 q 512 126 552 188 q 591 249 591 314 q 591 386 549 450 q 506 514 428 562 q 375 594 311 613 q 247 632 195 632 l 176 632 q 162 567 153 443 q 145 319 145 158 q 145 130 147 104 q 149 79 153 54 z m 162 6 l 162 -3 q 162 -14 156 -19 q 149 -25 137 -25 q 120 -25 113 12 q 107 50 107 170 q 107 318 114 437 q 122 557 135 628 q 56 623 -4 593 q -63 562 -63 562 q -73 562 -79 567 q -84 572 -84 582 q -84 605 -1 634 q 83 662 171 662 q 245 662 317 643 q 389 625 448 590 q 536 540 583 468 q 631 397 631 318 q 631 250 591 185 q 552 120 480 71 q 429 36 367 18 q 305 0 233 0 q 215 0 197 1 q 179 3 162 6 z"},"^":{"x_min":0,"x_max":1000,"ha":1000,"o":"m 528 712 l 792 440 l 731 440 l 500 669 l 268 440 l 207 440 l 470 712 z"},"0":{"x_min":0,"x_max":590,"ha":590,"o":"m 172 594 q 129 533 107 460 q 85 387 85 307 q 85 195 141 119 q 198 44 281 44 q 381 44 442 130 q 503 217 503 359 q 503 490 444 566 q 386 641 285 641 q 268 641 249 637 q 230 633 210 625 q 203 613 194 606 q 185 599 172 594 z m 133 606 q 132 608 132 609 q 132 611 132 614 q 132 640 175 657 q 219 675 282 675 q 402 675 476 588 q 549 502 549 359 q 549 295 529 231 q 510 167 473 113 q 439 63 388 34 q 337 5 283 5 q 179 5 110 91 q 40 178 40 308 q 40 378 62 449 q 84 521 133 606 z"},"F":{"x_min":0,"x_max":861,"ha":861,"o":"m 670 389 q 660 389 649 388 q 639 388 624 388 q 581 388 558 393 q 536 398 536 408 q 536 413 540 416 q 543 419 550 419 q 551 419 566 417 q 581 415 595 415 q 609 415 627 417 q 646 418 676 422 q 676 427 676 436 q 677 444 677 447 q 677 533 690 600 q 703 667 725 699 q 688 689 641 685 q 594 680 521 680 l 453 680 q 340 680 280 667 q 221 654 172 625 q 126 597 103 560 q 79 522 79 480 q 79 425 116 392 q 154 360 217 360 q 292 360 343 399 q 393 438 393 498 q 389 507 387 514 q 385 521 385 527 q 385 539 392 547 q 399 555 409 555 q 424 555 431 547 q 438 539 438 522 q 438 445 379 389 q 320 334 231 334 q 143 334 92 374 q 41 414 41 483 q 41 529 65 571 q 89 613 132 644 q 184 680 257 695 q 331 711 464 711 l 524 711 q 623 711 674 719 q 726 728 763 748 q 765 774 773 785 q 782 797 800 797 q 810 797 816 791 q 823 786 823 778 q 823 775 812 763 q 770 715 744 654 q 728 617 721 565 q 714 512 714 422 q 746 423 767 424 q 789 424 809 424 q 853 424 870 417 q 887 411 887 395 q 887 386 881 381 q 875 377 863 377 q 850 377 837 381 q 824 386 812 394 q 796 394 761 392 q 726 391 708 391 q 708 387 708 375 q 709 363 709 356 q 709 229 700 155 q 691 80 672 27 q 631 -83 544 -143 q 457 -203 338 -203 q 266 -203 192 -177 q 118 -150 65 -105 q 27 -73 8 -46 q -11 -18 -11 5 q -11 17 -4 24 q 2 31 14 31 q 29 31 42 21 q 54 12 54 0 q 54 -5 49 -15 q 43 -26 43 -32 q 43 -45 57 -61 q 70 -77 103 -101 q 152 -137 206 -155 q 261 -173 322 -173 q 416 -173 489 -134 q 562 -94 606 -20 q 641 39 656 118 q 671 198 671 357 q 671 358 671 361 q 670 376 670 389 z"},"`":{"x_min":0,"x_max":500,"ha":500,"o":"m 200 631 q 214 631 235 605 q 257 580 276 566 q 291 555 313 543 q 336 532 336 523 q 336 519 332 515 q 328 512 323 512 q 289 512 233 550 q 177 588 177 609 q 177 617 185 624 q 192 631 200 631 z"},"k":{"x_min":0,"x_max":405,"ha":405,"o":"m 102 183 q 113 182 123 181 q 132 180 141 180 q 221 180 279 239 q 337 297 337 373 q 337 406 322 424 q 307 443 281 443 q 236 443 188 375 q 141 306 102 183 z m 92 247 q 134 358 186 418 q 238 478 292 478 q 329 478 350 450 q 371 423 371 375 q 371 284 303 221 q 235 158 130 155 q 161 99 211 67 q 262 34 316 34 q 355 34 376 59 q 383 66 386 66 q 394 66 401 58 q 407 50 407 37 q 407 17 386 4 q 364 -9 329 -9 q 268 -9 209 32 q 150 72 97 151 q 96 117 95 101 q 95 84 95 69 l 95 38 q 97 32 98 26 q 99 20 99 16 q 99 5 94 0 q 90 -5 80 -5 q 64 -5 59 6 q 54 16 54 58 l 54 92 q 54 255 56 355 q 59 455 64 522 q 64 530 65 544 q 72 627 102 627 q 114 627 121 623 q 128 618 128 610 q 128 606 126 604 q 125 601 117 593 q 105 542 99 456 q 92 371 92 271 z"},"u":{"x_min":0,"x_max":356,"ha":356,"o":"m 253 169 q 236 78 209 34 q 181 -9 140 -9 q 97 -9 76 44 q 55 97 55 207 q 55 261 59 314 q 62 368 70 416 q 73 435 79 444 q 85 452 96 452 q 106 452 113 446 q 119 440 119 432 q 119 427 116 422 q 114 417 109 413 q 100 357 95 303 q 90 249 90 201 q 90 115 105 72 q 120 29 149 29 q 186 29 209 108 q 233 188 233 318 q 233 365 229 405 q 229 411 229 412 q 229 419 234 425 q 239 430 247 430 q 266 430 271 328 q 275 227 292 132 q 298 98 304 79 q 311 60 317 53 q 320 50 331 45 q 341 41 341 35 q 341 27 331 19 q 321 11 309 11 q 287 11 275 45 q 262 80 253 169 z"},"]":{"x_min":0,"x_max":282,"ha":282,"o":"m 158 701 q 126 698 104 697 q 81 695 68 695 q 18 695 -3 699 q -23 704 -23 714 q -23 721 -19 724 q -14 727 -5 727 q -4 727 5 727 q 14 726 23 726 q 98 726 166 735 q 175 736 177 736 q 190 736 197 731 q 204 727 204 719 q 204 713 202 709 q 201 705 196 699 q 196 671 197 638 q 197 606 197 545 q 197 391 194 237 q 190 83 184 -72 q 188 -78 190 -83 q 192 -88 192 -92 q 192 -101 185 -105 q 178 -110 163 -110 q 47 -110 12 -105 q -23 -101 -23 -89 q -23 -83 -18 -79 q -14 -76 -5 -76 q -4 -76 -1 -76 q 12 -77 23 -77 q 49 -77 80 -76 q 110 -75 144 -72 q 150 7 155 191 q 159 374 159 601 q 159 645 159 665 q 159 685 158 701 z"},"U":{"x_min":0,"x_max":521,"ha":521,"o":"m 160 662 q 141 573 132 486 q 122 399 122 317 q 122 164 151 90 q 181 16 241 16 q 334 16 398 165 q 463 313 463 543 q 463 597 460 649 q 458 702 452 753 q 448 761 446 766 q 444 771 444 773 q 444 779 449 783 q 454 787 462 787 q 483 787 490 761 q 497 735 497 627 l 497 583 q 497 305 429 148 q 361 -9 242 -9 q 160 -9 121 73 q 82 154 82 327 q 82 372 85 425 q 88 477 96 550 q 97 556 98 566 q 106 650 113 674 q 119 697 128 707 q 138 717 154 717 q 166 717 173 710 q 181 704 181 694 q 181 689 177 682 q 172 675 160 662 z"},"o":{"x_min":0,"x_max":433,"ha":433,"o":"m 350 350 q 371 333 384 294 q 397 256 397 209 q 397 115 340 53 q 282 -9 194 -9 q 115 -9 70 42 q 24 93 24 182 q 24 277 83 346 q 141 415 219 415 q 261 415 294 399 q 327 382 350 350 z m 319 342 q 296 367 272 379 q 249 390 219 390 q 156 390 108 330 q 60 270 60 186 q 60 114 98 70 q 135 26 196 26 q 268 26 314 77 q 360 127 360 206 q 360 223 356 243 q 352 262 344 284 q 332 297 326 311 q 320 325 319 342 z"},"N":{"x_min":0,"x_max":616,"ha":616,"o":"m 278 589 q 261 258 158 62 q 55 -133 -98 -133 q -142 -133 -174 -115 q -206 -97 -206 -77 q -206 -66 -200 -60 q -194 -54 -185 -54 q -170 -54 -160 -76 q -157 -82 -156 -84 q -148 -96 -135 -101 q -123 -107 -105 -107 q -47 -107 15 -56 q 78 -5 123 81 q 155 142 181 221 q 206 300 222 390 q 234 460 241 529 q 248 597 248 646 q 248 659 247 674 q 246 689 246 693 q 246 708 251 715 q 256 721 267 721 q 290 721 299 673 q 301 662 302 655 q 303 651 316 555 q 330 459 345 364 q 373 186 405 107 q 438 27 488 2 q 495 31 499 182 q 503 333 515 454 q 533 635 565 714 q 597 792 652 792 q 670 792 681 783 q 693 773 693 760 q 693 752 689 748 q 686 743 681 743 q 676 743 666 747 q 655 751 651 751 q 597 751 566 580 q 534 409 534 111 q 534 43 547 -3 q 549 -8 549 -10 q 549 -21 540 -28 q 531 -35 515 -35 q 420 -35 364 110 q 309 254 278 589 z"},"+":{"x_min":0,"x_max":833,"ha":833,"o":"m 436 596 l 436 318 l 709 318 l 709 278 l 436 278 l 436 0 l 397 0 l 397 278 l 124 278 l 124 318 l 397 318 l 397 596 z"},"G":{"x_min":0,"x_max":618,"ha":618,"o":"m 484 245 q 459 246 436 247 q 412 247 379 247 q 339 247 300 245 q 293 245 292 245 q 279 245 272 250 q 265 254 265 262 q 265 271 276 275 q 288 280 310 280 l 337 280 l 477 280 q 549 280 570 273 q 590 267 590 249 q 590 240 584 234 q 578 228 568 228 q 562 228 554 230 q 546 232 536 237 q 497 118 423 54 q 350 -10 253 -10 q 140 -10 70 68 q 0 145 0 274 q 0 359 30 448 q 60 538 114 615 q 164 686 225 724 q 285 763 345 763 q 405 763 454 726 q 503 689 529 625 q 544 586 554 543 q 564 499 564 479 q 564 458 557 448 q 550 438 537 438 q 525 438 519 448 q 512 458 512 477 q 512 492 515 504 q 518 516 523 527 q 503 629 459 680 q 416 731 347 731 q 305 731 258 704 q 211 677 170 628 q 111 558 77 466 q 44 373 44 278 q 44 160 99 90 q 153 21 245 21 q 330 21 398 85 q 467 149 484 245 z"},"q":{"x_min":0,"x_max":396,"ha":396,"o":"m 316 315 q 308 358 279 385 q 250 413 213 413 q 156 413 109 343 q 62 273 62 184 q 62 118 90 77 q 119 36 163 36 q 211 36 246 82 q 280 128 297 216 q 301 239 304 274 q 307 310 316 315 z m 295 106 q 271 56 233 29 q 196 1 154 1 q 97 1 61 50 q 24 98 24 176 q 24 225 41 275 q 58 326 88 366 q 115 403 147 422 q 180 442 212 442 q 250 442 281 422 q 312 401 335 361 q 347 340 354 322 q 361 303 361 293 q 361 288 358 280 q 355 272 349 263 q 336 145 329 42 q 322 -62 322 -111 q 322 -124 323 -137 q 324 -149 326 -162 q 334 -167 338 -173 q 342 -179 342 -186 q 342 -197 337 -201 q 332 -206 320 -206 q 297 -206 288 -188 q 279 -171 279 -114 q 279 -84 283 -29 q 287 27 295 106 z"},"d":{"x_min":0,"x_max":461,"ha":461,"o":"m 317 425 q 306 425 298 428 q 291 432 284 440 q 267 448 252 452 q 238 456 225 456 q 158 456 111 387 q 63 318 63 218 q 63 132 99 79 q 135 26 190 26 q 258 26 288 113 q 318 200 318 398 q 318 399 317 408 q 317 417 317 425 z m 322 459 q 323 474 324 509 q 325 544 325 598 q 325 636 313 667 q 311 673 311 674 q 311 685 318 692 q 325 698 336 698 q 354 698 360 682 q 366 665 366 596 q 366 558 363 442 q 359 326 359 248 q 359 141 376 93 q 393 44 430 44 q 432 44 434 44 q 437 45 438 45 q 438 46 440 50 q 447 67 455 67 q 460 67 463 63 q 466 60 466 54 q 466 38 454 26 q 441 14 423 14 q 383 14 358 46 q 332 78 325 137 q 303 61 269 26 q 234 -9 182 -9 q 115 -9 73 49 q 31 106 31 200 q 31 321 88 402 q 146 483 227 483 q 249 483 272 477 q 296 471 322 459 z"},"1":{"x_min":0,"x_max":301,"ha":301,"o":"m 126 36 q 132 172 140 283 q 147 394 156 492 q 113 461 87 447 q 61 432 50 432 q 41 432 35 437 q 30 441 30 449 q 30 463 62 475 q 82 482 93 488 q 140 511 176 544 q 186 553 188 553 q 193 553 197 549 q 200 545 200 538 q 200 536 197 517 q 167 329 167 106 q 167 93 168 78 q 168 63 170 47 q 200 52 214 53 q 228 55 234 55 q 255 55 269 47 q 283 40 283 29 q 283 25 278 21 q 273 17 268 17 q 262 17 254 18 q 245 19 242 19 q 182 19 107 -2 q 32 -23 32 -23 q 24 -23 19 -19 q 14 -14 14 -8 q 14 13 92 29 q 114 33 126 36 z"},"5":{"x_min":0,"x_max":461,"ha":461,"o":"m 99 364 q 132 397 169 414 q 206 431 247 431 q 320 431 367 378 q 414 326 414 242 q 414 134 348 61 q 282 -12 184 -12 q 125 -12 76 21 q 27 55 27 86 q 27 96 33 103 q 40 109 50 109 q 61 109 71 96 q 81 84 86 62 q 105 40 131 29 q 158 17 189 17 q 263 17 316 80 q 370 143 370 230 q 370 304 334 348 q 298 391 238 391 q 201 391 168 375 q 136 359 111 328 q 106 322 97 310 q 78 282 64 282 q 55 282 50 289 q 45 295 45 307 q 45 318 49 353 q 52 387 58 428 q 59 433 60 441 q 73 535 83 550 q 94 566 150 573 q 207 581 318 581 q 351 581 364 575 q 376 570 376 557 q 376 547 371 542 q 367 537 356 537 q 354 537 346 538 q 311 544 277 544 q 244 544 204 540 q 164 536 118 528 q 110 483 105 443 q 101 403 99 364 z"}}}
